<svg xmlns="http://www.w3.org/2000/svg">
  <symbol id="board" className="board"  viewBox="0 0 20 20" >
    <path d="M7.5 4.5H16C16.2761 4.5 16.5 4.72386 16.5 5V15C16.5 15.2761 16.2761 15.5 16 15.5H7.5L7.5 4.5ZM6 4.5H4C3.72386 4.5 3.5 4.72386 3.5 5V15C3.5 15.2761 3.72386 15.5 4 15.5H6L6 4.5ZM2 5C2 3.89543 2.89543 3 4 3H16C17.1046 3 18 3.89543 18 5V15C18 16.1046 17.1046 17 16 17H4C2.89543 17 2 16.1046 2 15V5Z" fill="currentColor" fill-rule="evenodd" clip-rule="evenodd"></path>
  </symbol>
  <symbol id="home" className="home" viewBox="0 0 20 20"  >
    <path d="M9.56992 2.1408C9.82591 1.95307 10.1741 1.95307 10.4301 2.1408L17.7028 7.47413C17.8896 7.61113 18 7.82894 18 8.06061V16.7879C18 17.1895 17.6744 17.5152 17.2727 17.5152H11.9394C11.5377 17.5152 11.2121 17.1895 11.2121 16.7879V13.1515H8.78788V16.7879C8.78788 17.1895 8.46227 17.5152 8.06061 17.5152H2.72727C2.32561 17.5152 2 17.1895 2 16.7879V8.06061C2 7.82894 2.11037 7.61113 2.29719 7.47413L9.56992 2.1408ZM3.45455 8.42914V16.0606H7.33333V12.4242C7.33333 12.0226 7.65894 11.697 8.06061 11.697H11.9394C12.3411 11.697 12.6667 12.0226 12.6667 12.4242V16.0606H16.5455V8.42914L10 3.62914L3.45455 8.42914Z" fill="currentColor" fill-rule="evenodd" clip-rule="evenodd"></path>
  </symbol>
  <symbol id="add" className="add" viewBox="0 0 20 20" >
    <path d="M10.75 3C10.75 2.58579 10.4142 2.25 10 2.25C9.58579 2.25 9.25 2.58579 9.25 3V9.25H3C2.58579 9.25 2.25 9.58579 2.25 10C2.25 10.4142 2.58579 10.75 3 10.75H9.25V17C9.25 17.4142 9.58579 17.75 10 17.75C10.4142 17.75 10.75 17.4142 10.75 17V10.75H17C17.4142 10.75 17.75 10.4142 17.75 10C17.75 9.58579 17.4142 9.25 17 9.25H10.75V3Z" fill="currentColor" fill-rule="evenodd" clip-rule="evenodd"></path>
  </symbol>
  <symbol id="search" className="search" viewBox="0 0 20 20" >
    <path d="M8.65191 2.37299C6.9706 2.37299 5.35814 3.04089 4.16927 4.22976C2.9804 5.41863 2.3125 7.03108 2.3125 8.7124C2.3125 10.3937 2.9804 12.0062 4.16927 13.195C5.35814 14.3839 6.9706 15.0518 8.65191 15.0518C10.0813 15.0518 11.4609 14.5691 12.5728 13.6939L16.4086 17.5303C16.7014 17.8232 17.1763 17.8232 17.4692 17.5303C17.7621 17.2375 17.7622 16.7626 17.4693 16.4697L13.6334 12.6333C14.5086 11.5214 14.9913 10.1418 14.9913 8.7124C14.9913 7.03108 14.3234 5.41863 13.1346 4.22976C11.9457 3.04089 10.3332 2.37299 8.65191 2.37299ZM12.091 12.1172C12.9878 11.2113 13.4913 9.98783 13.4913 8.7124C13.4913 7.42891 12.9815 6.19798 12.0739 5.29042C11.1663 4.38285 9.9354 3.87299 8.65191 3.87299C7.36842 3.87299 6.1375 4.38285 5.22993 5.29042C4.32237 6.19798 3.8125 7.42891 3.8125 8.7124C3.8125 9.99589 4.32237 11.2268 5.22993 12.1344C6.1375 13.0419 7.36842 13.5518 8.65191 13.5518C9.92736 13.5518 11.1509 13.0483 12.0568 12.1514C12.0623 12.1455 12.0679 12.1397 12.0737 12.134C12.0794 12.1283 12.0851 12.1227 12.091 12.1172Z" fill="currentColor" fill-rule="evenodd" clip-rule="evenodd"></path>
  </symbol>
  <symbol id="table" className="table" viewBox="0 0 20 20" >
    <path d="M3 2.25C2.58579 2.25 2.25 2.58579 2.25 3V8.38462C2.25 8.79883 2.58579 9.13462 3 9.13462H8.38462C8.79883 9.13462 9.13462 8.79883 9.13462 8.38462V3C9.13462 2.58579 8.79883 2.25 8.38462 2.25H3ZM3.75 7.63462V3.75H7.63462V7.63462H3.75ZM11.6154 2.25C11.2012 2.25 10.8654 2.58579 10.8654 3V8.38462C10.8654 8.79883 11.2012 9.13462 11.6154 9.13462H17C17.4142 9.13462 17.75 8.79883 17.75 8.38462V3C17.75 2.58579 17.4142 2.25 17 2.25H11.6154ZM12.3654 7.63462V3.75H16.25V7.63462H12.3654ZM2.25 11.6154C2.25 11.2012 2.58579 10.8654 3 10.8654H8.38462C8.79883 10.8654 9.13462 11.2012 9.13462 11.6154V17C9.13462 17.4142 8.79883 17.75 8.38462 17.75H3C2.58579 17.75 2.25 17.4142 2.25 17V11.6154ZM3.75 12.3654V16.25H7.63462V12.3654H3.75ZM11.6154 10.8654C11.2012 10.8654 10.8654 11.2012 10.8654 11.6154V17C10.8654 17.4142 11.2012 17.75 11.6154 17.75H17C17.4142 17.75 17.75 17.4142 17.75 17V11.6154C17.75 11.2012 17.4142 10.8654 17 10.8654H11.6154ZM12.3654 16.25V12.3654H16.25V16.25H12.3654Z" fill="currentColor" fill-rule="evenodd" clip-rule="evenodd"></path>
  </symbol>
  <symbol id="arrow" className="arrow" viewBox="0 0 20 20" >
    <path d="M5.46967 10.5303L6 10L5.46967 9.46967C5.17678 9.76256 5.17678 10.2374 5.46967 10.5303ZM7.06066 10L13.5303 3.53033C13.8232 3.23744 13.8232 2.76256 13.5303 2.46967C13.2374 2.17678 12.7626 2.17678 12.4697 2.46967L5.46967 9.46967L6 10L5.46967 10.5303L12.4697 17.5303C12.7626 17.8232 13.2374 17.8232 13.5303 17.5303C13.8232 17.2374 13.8232 16.7626 13.5303 16.4697L7.06066 10Z" fill="currentColor" fill-rule="evenodd" clip-rule="evenodd" stroke="currentColor" ></path>
  </symbol>
  <symbol id="menu" className="menu" viewBox="0 0 20 20" >
    <path d="M6 10.5C6 11.3284 5.32843 12 4.5 12 3.67157 12 3 11.3284 3 10.5 3 9.67157 3.67157 9 4.5 9 5.32843 9 6 9.67157 6 10.5zM11.8333 10.5C11.8333 11.3284 11.1618 12 10.3333 12 9.50492 12 8.83334 11.3284 8.83334 10.5 8.83334 9.67157 9.50492 9 10.3333 9 11.1618 9 11.8333 9.67157 11.8333 10.5zM17.6667 10.5C17.6667 11.3284 16.9951 12 16.1667 12 15.3383 12 14.6667 11.3284 14.6667 10.5 14.6667 9.67157 15.3383 9 16.1667 9 16.9951 9 17.6667 9.67157 17.6667 10.5z" fill="currentColor"></path>
  </symbol>
  <symbol id="x" className="x" viewBox="5 5 15 15" >
    <path d="M19 6.41L17.59 5 12 10.59 6.41 5 5 6.41 10.59 12 5 17.59 6.41 19 12 13.41 17.59 19 19 17.59 13.41 12z" fill="currentColor" fill-rule="evenodd" clip-rule="evenodd" stroke="currentColor" ></path>
  </symbol>
  <symbol id="clock" className="clock" viewBox="0 0 20 20" >
    <path d="M9.95001 1.95C7.82828 1.95 5.79345 2.79285 4.29316 4.29314C2.79287 5.79343 1.95001 7.82827 1.95001 9.95C1.95001 12.0717 2.79287 14.1066 4.29316 15.6069C5.79345 17.1071 7.82828 17.95 9.95001 17.95C12.0717 17.95 14.1066 17.1071 15.6069 15.6069C17.1072 14.1066 17.95 12.0717 17.95 9.95C17.95 7.82827 17.1072 5.79343 15.6069 4.29314C14.1066 2.79285 12.0717 1.95 9.95001 1.95ZM5.35382 5.3538C6.5728 4.13482 8.22611 3.45 9.95001 3.45C11.6739 3.45 13.3272 4.13482 14.5462 5.3538C15.7652 6.57279 16.45 8.22609 16.45 9.95C16.45 11.6739 15.7652 13.3272 14.5462 14.5462C13.3272 15.7652 11.6739 16.45 9.95001 16.45C8.22611 16.45 6.5728 15.7652 5.35382 14.5462C4.13483 13.3272 3.45001 11.6739 3.45001 9.95C3.45001 8.22609 4.13483 6.57279 5.35382 5.3538ZM11.1834 6.56667C11.1834 6.15245 10.8476 5.81667 10.4334 5.81667C10.0192 5.81667 9.68338 6.15245 9.68338 6.56667V10.4333C9.68338 10.8475 10.0192 11.1833 10.4334 11.1833H13.3334C13.7476 11.1833 14.0834 10.8475 14.0834 10.4333C14.0834 10.0191 13.7476 9.68333 13.3334 9.68333H11.1834V6.56667Z" fill="currentColor" fill-rule="evenodd" clip-rule="evenodd"></path>
  </symbol>
  <symbol id="full-arrow" className="full-arrow" viewBox="0 0 10 10">
    <path  fill-rule="evenodd"  fill="currentColor" clip-rule="evenodd" d="M4.628.616a.5.5 0 1 0-.64.768L6.203 3.23H.5a.5.5 0 0 0 0 1h5.612L3.988 6a.5.5 0 1 0 .64.769l3.23-2.693a.5.5 0 0 0 0-.768L4.628.616z"></path>
  </symbol>
  <symbol id="delete" className="delete" viewBox="0 0 20 20">
    <path d="M8.30035 1.86462C7.77994 1.86462 7.29477 2.08976 6.94732 2.46719C6.60179 2.84253 6.41724 3.33927 6.41724 3.84552V4.32642H4.901H2.63477C2.22055 4.32642 1.88477 4.6622 1.88477 5.07642C1.88477 5.49063 2.22055 5.82642 2.63477 5.82642H4.151V16.1545C4.151 16.6608 4.33556 17.1575 4.68109 17.5328C5.02853 17.9103 5.51371 18.1354 6.03411 18.1354H13.9659C14.4863 18.1354 14.9715 17.9103 15.3189 17.5328C15.6645 17.1575 15.849 16.6608 15.849 16.1545V5.82642H17.3652C17.7794 5.82642 18.1152 5.49063 18.1152 5.07642C18.1152 4.6622 17.7794 4.32642 17.3652 4.32642H15.099H13.5828V3.84552C13.5828 3.33927 13.3982 2.84253 13.0527 2.46719C12.7053 2.08976 12.2201 1.86462 11.6997 1.86462H8.30035ZM7.16447 5.82642C7.16539 5.82642 7.16631 5.82642 7.16724 5.82642H12.8328C12.8337 5.82642 12.8346 5.82642 12.8356 5.82642H14.349V16.1545C14.349 16.3012 14.2948 16.4306 14.2153 16.5169C14.1378 16.6012 14.0465 16.6354 13.9659 16.6354H6.03411C5.95348 16.6354 5.86223 16.6012 5.78468 16.5169C5.7052 16.4306 5.651 16.3012 5.651 16.1545V5.82642H7.16447ZM12.0828 4.32642V3.84552C12.0828 3.69887 12.0286 3.56943 11.9491 3.4831C11.8716 3.39886 11.7803 3.36462 11.6997 3.36462H8.30035C8.21972 3.36462 8.12847 3.39886 8.05091 3.4831C7.97144 3.56943 7.91724 3.69887 7.91724 3.84552V4.32642L12.0828 4.32642Z" fill="currentColor" fill-rule="evenodd" clip-rule="evenodd" stroke-width="2" ></path>
  </symbol>
  <symbol id="open" className="open" viewBox="0 0 20 20">
    <path d="M12.5148 2.49976C12.1212 2.49976 11.8022 2.82125 11.8022 3.21784 11.8022 3.61443 12.1212 3.93593 12.5148 3.93593H14.6466L10.7369 8.15315C10.4682 8.44295 10.4836 8.89735 10.7711 9.16809 11.0587 9.43883 11.5096 9.42339 11.7783 9.1336L15.5746 5.03862V7.28699C15.5746 7.68358 15.8936 8.00507 16.2872 8.00507 16.6807 8.00507 16.9997 7.68358 16.9997 7.28699V3.23812C17.0052 3.03946 16.9293 2.83946 16.7739 2.69313 16.6366 2.56389 16.4621 2.49986 16.288 2.49976L12.5148 2.49976zM9.26311 11.8464C9.53177 11.5566 9.51644 11.1022 9.22888 10.8314 8.94131 10.5607 8.4904 10.5761 8.22174 10.8659L4.42513 14.9612V12.7124C4.42513 12.3158 4.1061 11.9943 3.71256 11.9943 3.31903 11.9943 3 12.3158 3 12.7124V16.7815C3 16.8649 3.01412 16.945 3.04007 17.0195 3.07689 17.1255 3.13902 17.2244 3.22611 17.3064 3.36743 17.4394 3.54818 17.5034 3.72738 17.4996H7.48496C7.8785 17.4996 8.19752 17.1781 8.19752 16.7815 8.19752 16.3849 7.8785 16.0634 7.48496 16.0634H5.35358L9.26311 11.8464z" fill="currentColor"></path>
  </symbol>
  <symbol id="text" className="text" viewBox="0 0 20 20">
    <path d="M4.75 5C4.75 4.86193 4.86193 4.75 5 4.75H9.24961V15.2498H7.5C7.08579 15.2498 6.75 15.5856 6.75 15.9998C6.75 16.414 7.08579 16.7498 7.5 16.7498H9.98232L9.99961 16.75L10.0169 16.7498H12.5C12.9142 16.7498 13.25 16.414 13.25 15.9998C13.25 15.5856 12.9142 15.2498 12.5 15.2498H10.7496V4.75H15C15.1381 4.75 15.25 4.86193 15.25 5V6C15.25 6.41421 15.5858 6.75 16 6.75C16.4142 6.75 16.75 6.41421 16.75 6V5C16.75 4.0335 15.9665 3.25 15 3.25H5C4.0335 3.25 3.25 4.0335 3.25 5V6C3.25 6.41421 3.58579 6.75 4 6.75C4.41421 6.75 4.75 6.41421 4.75 6V5Z" fill="currentColor"></path>
  </symbol>
  <symbol id="duplicate" className="duplicate" viewBox="0 0 20 20">
    <path d="M7.82576 3.7273C7.82576 3.58922 7.93769 3.47729 8.07576 3.47729H9.76937H13.1567C13.2184 3.47729 13.278 3.50016 13.3239 3.54147L15.94 5.89592C15.9927 5.94334 16.0227 6.01088 16.0227 6.08175V13.3637C16.0227 13.5017 15.9108 13.6137 15.7727 13.6137H8.07576C7.93769 13.6137 7.82576 13.5017 7.82576 13.3637V3.7273ZM8.07576 1.97729C7.10926 1.97729 6.32576 2.7608 6.32576 3.7273V4.88639H5.16667C4.20017 4.88639 3.41667 5.66989 3.41667 6.63639V16.2727C3.41667 17.2392 4.20018 18.0228 5.16667 18.0228H11.8939C12.8604 18.0228 13.6439 17.2392 13.6439 16.2727V15.1137H15.7727C16.7392 15.1137 17.5227 14.3302 17.5227 13.3637V6.08175C17.5227 5.58565 17.3122 5.11286 16.9434 4.78098L14.3274 2.42653C14.006 2.13732 13.589 1.97729 13.1567 1.97729H9.76937H8.07576ZM12.1439 15.1137H8.07576C7.10927 15.1137 6.32576 14.3302 6.32576 13.3637V6.38639H5.16667C5.0286 6.38639 4.91667 6.49831 4.91667 6.63639V16.2727C4.91667 16.4108 5.0286 16.5227 5.16667 16.5227H11.8939C12.032 16.5227 12.1439 16.4108 12.1439 16.2727V15.1137Z" fill="currentColor" fill-rule="evenodd" clip-rule="evenodd"></path> 
  </symbol>
  <symbol id="edit" className="edit" viewBox="0 0 20 20">
    <path d="M13.8542 3.59561C13.8541 3.59568 13.8542 3.59555 13.8542 3.59561L4.80915 12.6503L3.81363 16.189L7.35682 15.1957L16.4018 6.14C16.4746 6.06722 16.5161 5.96795 16.5161 5.86503C16.5161 5.76221 16.4753 5.6636 16.4026 5.59083C16.4025 5.59076 16.4026 5.59091 16.4026 5.59083L14.4038 3.59568C14.3309 3.52292 14.232 3.48197 14.1289 3.48197C14.026 3.48197 13.927 3.52297 13.8542 3.59561ZM12.8051 2.54754C13.1562 2.19695 13.6324 2 14.1289 2C14.6254 2 15.1016 2.19693 15.4527 2.54747C15.4527 2.5475 15.4527 2.54745 15.4527 2.54747L17.4515 4.54263C17.8026 4.89333 18 5.36914 18 5.86503C18 6.36091 17.8028 6.8365 17.4518 7.18719L8.26993 16.3799C8.17984 16.4701 8.06798 16.5356 7.94516 16.57L2.94244 17.9724C2.68418 18.0448 2.4069 17.9723 2.21725 17.7829C2.0276 17.5934 1.95512 17.3165 2.02768 17.0586L3.43296 12.0633C3.46728 11.9413 3.53237 11.8301 3.62199 11.7404L12.8051 2.54754Z" fill="currentColor" fill-rule="evenodd" clip-rule="evenodd"></path> 
 </symbol>
  <symbol id="collapse" className="collapse" viewBox="0 0 20 20">
    <path d="M6.16376 4.22C5.99557 4.0151 5.68881 3.99367 5.48773 4.17497C5.28705 4.35499 5.26518 4.66771 5.43096 4.8775L5.4353 4.88299L7.63897 7.22958C7.72516 7.33476 7.85958 7.39844 8.00004 7.39844C8.14365 7.39844 8.27703 7.33229 8.36756 7.22211L10.5575 4.89136L10.5617 4.88617C10.6403 4.78767 10.6797 4.67416 10.6797 4.55638C10.6797 4.41287 10.6212 4.27286 10.5119 4.17474C10.3079 3.99078 10.0016 4.01836 9.82898 4.2282L8.00006 6.1483L6.16376 4.22Z" fill="currentColor"></path>
    <path d="M9.83624 11.78C10.0044 11.9849 10.3112 12.0063 10.5123 11.825C10.713 11.645 10.7348 11.3323 10.569 11.1225L10.5647 11.117L8.36103 8.77042C8.27484 8.66524 8.14042 8.60156 7.99997 8.60156C7.85635 8.60156 7.72297 8.6677 7.63244 8.77788L5.44247 11.1086L5.43833 11.1138C5.35974 11.2123 5.32031 11.3258 5.32031 11.4436C5.32031 11.5871 5.37883 11.7271 5.48811 11.8253C5.69211 12.0092 5.99842 11.9816 6.17102 11.7718L7.99994 9.8517L9.83624 11.78Z" fill="currentColor"></path>
    <path fill-rule="evenodd" clip-rule="evenodd" d="M15 8C15 11.866 11.866 15 8 15C4.13401 15 1 11.866 1 8C1 4.13401 4.13401 1 8 1C11.866 1 15 4.13401 15 8ZM14.125 8C14.125 11.3827 11.3827 14.125 8 14.125C4.61726 14.125 1.875 11.3827 1.875 8C1.875 4.61726 4.61726 1.875 8 1.875C11.3827 1.875 14.125 4.61726 14.125 8Z" fill="currentColor"></path>
 </symbol>
 <symbol id="expand" className="expand" viewBox="0 0 20 20">
    <path d="M6.16376 4.22C5.99557 4.0151 5.68881 3.99367 5.48773 4.17497C5.28705 4.35499 5.26518 4.66771 5.43096 4.8775L5.4353 4.88299L7.63897 7.22958C7.72516 7.33476 7.85958 7.39844 8.00004 7.39844C8.14365 7.39844 8.27703 7.33229 8.36756 7.22211L10.5575 4.89136L10.5617 4.88617C10.6403 4.78767 10.6797 4.67416 10.6797 4.55638C10.6797 4.41287 10.6212 4.27286 10.5119 4.17474C10.3079 3.99078 10.0016 4.01836 9.82898 4.2282L8.00006 6.1483L6.16376 4.22Z" fill="currentColor"></path>
    <path d="M9.83624 11.78C10.0044 11.9849 10.3112 12.0063 10.5123 11.825C10.713 11.645 10.7348 11.3323 10.569 11.1225L10.5647 11.117L8.36103 8.77042C8.27484 8.66524 8.14042 8.60156 7.99997 8.60156C7.85635 8.60156 7.72297 8.6677 7.63244 8.77788L5.44247 11.1086L5.43833 11.1138C5.35974 11.2123 5.32031 11.3258 5.32031 11.4436C5.32031 11.5871 5.37883 11.7271 5.48811 11.8253C5.69211 12.0092 5.99842 11.9816 6.17102 11.7718L7.99994 9.8517L9.83624 11.78Z" fill="currentColor"></path>
    <path fill-rule="evenodd" clip-rule="evenodd" d="M15 8C15 11.866 11.866 15 8 15C4.13401 15 1 11.866 1 8C1 4.13401 4.13401 1 8 1C11.866 1 15 4.13401 15 8ZM14.125 8C14.125 11.3827 11.3827 14.125 8 14.125C4.61726 14.125 1.875 11.3827 1.875 8C1.875 4.61726 4.61726 1.875 8 1.875C11.3827 1.875 14.125 4.61726 14.125 8Z" fill="currentColor"></path>
 </symbol>
 <symbol id="like" className="like" viewBox="0 0 20 20">
    <path d="M3.90002 6.59998H1.50002C0.900024 6.59998 0.400024 6.99998 0.400024 7.59998V14.4C0.400024 15 0.900024 15.5 1.50002 15.5H3.90002C4.50002 15.5 5.00002 15 5.00002 14.4V14.2V7.19998C4.90002 6.89998 4.40002 6.59998 3.90002 6.59998Z" stroke="currentColor"></path>
    <path d="M16.4 9.49995C16.4 8.99995 16.2 8.49995 15.8 8.19995C16 7.89995 16.2 7.49995 16.1 6.99995C16 6.09995 15.2 5.39995 14.3 5.39995H11.6L11.8 4.09995C11.8 3.69995 11.8 3.39995 11.8 2.99995C11.5 1.59995 10.3 0.699951 8.9 0.699951C8.6 0.699951 8.3 0.799951 8.1 1.09995C7.8 1.39995 7.7 1.69995 7.7 1.99995V3.69995C7.7 5.39995 6.8 6.49995 6.4 6.99995C6.3 7.09995 6 7.29995 6 7.29995V14.5C6.5 15 7.3 15.3 8.1 15.3H13.4C13.9 15.3 14.4 15.1 14.7 14.8C15 14.5 15.2 14 15.2 13.6C15.2 13.4 15.2 13.3 15.1 13.1C15.7 12.8 16 12.2 16 11.6C16 11.4 16 11.1 15.9 10.9C16.2 10.5 16.4 9.99995 16.4 9.49995Z" stroke="currentColor"></path>
  </symbol>
  <symbol id="reply" className="reply" viewBox="0 0 20 20">
    <path d="M8.74156 3.30708C9.02181 3.42317 9.20455 3.69664 9.20455 3.99999V6.52272H9.54546C12.594 6.52272 14.4466 8.07872 15.6387 10.016C16.5643 11.52 17.124 13.3156 17.5773 14.7702C17.6877 15.1243 17.7918 15.4582 17.8933 15.7628C17.9997 16.0818 17.8807 16.4325 17.6023 16.621C17.3239 16.8095 16.9541 16.7897 16.6974 16.5726C16.2203 16.1689 15.805 15.8083 15.4334 15.4856C14.5188 14.6914 13.8684 14.1267 13.2113 13.7146C12.3664 13.1848 11.5347 12.9318 10.0909 12.9318H9.20455V15.4545C9.20455 15.7644 9.014 16.0423 8.72499 16.1541C8.43599 16.2658 8.10802 16.1883 7.89959 15.959L2.44505 9.95904C2.17575 9.66281 2.18658 9.20729 2.46967 8.92421L7.92422 3.46966C8.13871 3.25516 8.4613 3.191 8.74156 3.30708ZM4.03601 9.47919L7.70455 13.5146V12.1818C7.70455 11.7676 8.04033 11.4318 8.45455 11.4318H10.0909C11.765 11.4318 12.8843 11.739 14.0082 12.4438C14.5309 12.7716 15.0614 13.1926 15.6536 13.6945C15.3125 12.696 14.9117 11.6967 14.3613 10.8022C13.3716 9.19399 11.9515 8.02272 9.54546 8.02272H8.45455C8.04033 8.02272 7.70455 7.68693 7.70455 7.27272V5.81065L4.03601 9.47919Z" fill="currentColor" fill-rule="evenodd" clip-rule="evenodd"></path>
  </symbol>
</svg>
