<svg xmlns="http://www.w3.org/2000/svg">
  <symbol id="board-icon" className="board-icon"  viewBox="0 0 20 20" >
    <path d="M7.5 4.5H16C16.2761 4.5 16.5 4.72386 16.5 5V15C16.5 15.2761 16.2761 15.5 16 15.5H7.5L7.5 4.5ZM6 4.5H4C3.72386 4.5 3.5 4.72386 3.5 5V15C3.5 15.2761 3.72386 15.5 4 15.5H6L6 4.5ZM2 5C2 3.89543 2.89543 3 4 3H16C17.1046 3 18 3.89543 18 5V15C18 16.1046 17.1046 17 16 17H4C2.89543 17 2 16.1046 2 15V5Z" fill="currentColor" fill-rule="evenodd" clip-rule="evenodd"></path>
  </symbol>
  <symbol id="home-icon" className="home-icon" viewBox="0 0 20 20"  >
    <path d="M9.56992 2.1408C9.82591 1.95307 10.1741 1.95307 10.4301 2.1408L17.7028 7.47413C17.8896 7.61113 18 7.82894 18 8.06061V16.7879C18 17.1895 17.6744 17.5152 17.2727 17.5152H11.9394C11.5377 17.5152 11.2121 17.1895 11.2121 16.7879V13.1515H8.78788V16.7879C8.78788 17.1895 8.46227 17.5152 8.06061 17.5152H2.72727C2.32561 17.5152 2 17.1895 2 16.7879V8.06061C2 7.82894 2.11037 7.61113 2.29719 7.47413L9.56992 2.1408ZM3.45455 8.42914V16.0606H7.33333V12.4242C7.33333 12.0226 7.65894 11.697 8.06061 11.697H11.9394C12.3411 11.697 12.6667 12.0226 12.6667 12.4242V16.0606H16.5455V8.42914L10 3.62914L3.45455 8.42914Z" fill="currentColor" fill-rule="evenodd" clip-rule="evenodd"></path>
  </symbol>
  <symbol id="add-icon" className="add-icon" viewBox="0 0 20 20" >
    <path d="M10.75 3C10.75 2.58579 10.4142 2.25 10 2.25C9.58579 2.25 9.25 2.58579 9.25 3V9.25H3C2.58579 9.25 2.25 9.58579 2.25 10C2.25 10.4142 2.58579 10.75 3 10.75H9.25V17C9.25 17.4142 9.58579 17.75 10 17.75C10.4142 17.75 10.75 17.4142 10.75 17V10.75H17C17.4142 10.75 17.75 10.4142 17.75 10C17.75 9.58579 17.4142 9.25 17 9.25H10.75V3Z" fill="currentColor" fill-rule="evenodd" clip-rule="evenodd"></path>
  </symbol>
  <symbol id="search-icon" className="search-icon" viewBox="0 0 20 20" >
    <path d="M8.65191 2.37299C6.9706 2.37299 5.35814 3.04089 4.16927 4.22976C2.9804 5.41863 2.3125 7.03108 2.3125 8.7124C2.3125 10.3937 2.9804 12.0062 4.16927 13.195C5.35814 14.3839 6.9706 15.0518 8.65191 15.0518C10.0813 15.0518 11.4609 14.5691 12.5728 13.6939L16.4086 17.5303C16.7014 17.8232 17.1763 17.8232 17.4692 17.5303C17.7621 17.2375 17.7622 16.7626 17.4693 16.4697L13.6334 12.6333C14.5086 11.5214 14.9913 10.1418 14.9913 8.7124C14.9913 7.03108 14.3234 5.41863 13.1346 4.22976C11.9457 3.04089 10.3332 2.37299 8.65191 2.37299ZM12.091 12.1172C12.9878 11.2113 13.4913 9.98783 13.4913 8.7124C13.4913 7.42891 12.9815 6.19798 12.0739 5.29042C11.1663 4.38285 9.9354 3.87299 8.65191 3.87299C7.36842 3.87299 6.1375 4.38285 5.22993 5.29042C4.32237 6.19798 3.8125 7.42891 3.8125 8.7124C3.8125 9.99589 4.32237 11.2268 5.22993 12.1344C6.1375 13.0419 7.36842 13.5518 8.65191 13.5518C9.92736 13.5518 11.1509 13.0483 12.0568 12.1514C12.0623 12.1455 12.0679 12.1397 12.0737 12.134C12.0794 12.1283 12.0851 12.1227 12.091 12.1172Z" fill="currentColor" fill-rule="evenodd" clip-rule="evenodd"></path>
  </symbol>
  <symbol id="table-icon" className="table-icon" viewBox="0 0 20 20" >
    <path d="M3 2.25C2.58579 2.25 2.25 2.58579 2.25 3V8.38462C2.25 8.79883 2.58579 9.13462 3 9.13462H8.38462C8.79883 9.13462 9.13462 8.79883 9.13462 8.38462V3C9.13462 2.58579 8.79883 2.25 8.38462 2.25H3ZM3.75 7.63462V3.75H7.63462V7.63462H3.75ZM11.6154 2.25C11.2012 2.25 10.8654 2.58579 10.8654 3V8.38462C10.8654 8.79883 11.2012 9.13462 11.6154 9.13462H17C17.4142 9.13462 17.75 8.79883 17.75 8.38462V3C17.75 2.58579 17.4142 2.25 17 2.25H11.6154ZM12.3654 7.63462V3.75H16.25V7.63462H12.3654ZM2.25 11.6154C2.25 11.2012 2.58579 10.8654 3 10.8654H8.38462C8.79883 10.8654 9.13462 11.2012 9.13462 11.6154V17C9.13462 17.4142 8.79883 17.75 8.38462 17.75H3C2.58579 17.75 2.25 17.4142 2.25 17V11.6154ZM3.75 12.3654V16.25H7.63462V12.3654H3.75ZM11.6154 10.8654C11.2012 10.8654 10.8654 11.2012 10.8654 11.6154V17C10.8654 17.4142 11.2012 17.75 11.6154 17.75H17C17.4142 17.75 17.75 17.4142 17.75 17V11.6154C17.75 11.2012 17.4142 10.8654 17 10.8654H11.6154ZM12.3654 16.25V12.3654H16.25V16.25H12.3654Z" fill="currentColor" fill-rule="evenodd" clip-rule="evenodd"></path>
  </symbol>
  <symbol id="arrow-icon" className="arrow-icon" viewBox="0 0 20 20" >
    <path d="M5.46967 10.5303L6 10L5.46967 9.46967C5.17678 9.76256 5.17678 10.2374 5.46967 10.5303ZM7.06066 10L13.5303 3.53033C13.8232 3.23744 13.8232 2.76256 13.5303 2.46967C13.2374 2.17678 12.7626 2.17678 12.4697 2.46967L5.46967 9.46967L6 10L5.46967 10.5303L12.4697 17.5303C12.7626 17.8232 13.2374 17.8232 13.5303 17.5303C13.8232 17.2374 13.8232 16.7626 13.5303 16.4697L7.06066 10Z" fill="currentColor" fill-rule="evenodd" clip-rule="evenodd"></path>
  </symbol>
  <symbol id="menu-icon" className="menu-icon" viewBox="0 0 20 20" >
    <path d="M6 10.5C6 11.3284 5.32843 12 4.5 12 3.67157 12 3 11.3284 3 10.5 3 9.67157 3.67157 9 4.5 9 5.32843 9 6 9.67157 6 10.5zM11.8333 10.5C11.8333 11.3284 11.1618 12 10.3333 12 9.50492 12 8.83334 11.3284 8.83334 10.5 8.83334 9.67157 9.50492 9 10.3333 9 11.1618 9 11.8333 9.67157 11.8333 10.5zM17.6667 10.5C17.6667 11.3284 16.9951 12 16.1667 12 15.3383 12 14.6667 11.3284 14.6667 10.5 14.6667 9.67157 15.3383 9 16.1667 9 16.9951 9 17.6667 9.67157 17.6667 10.5z" fill="currentColor"></path>
  </symbol>
  <!-- More icons... -->
</svg>
